<mxfile host="65bd71144e">
    <diagram id="iaj4QGRVj-I3Li7T95gz" name="Page-1">
        <mxGraphModel dx="2349" dy="1754" grid="1" gridSize="10" guides="1" tooltips="1" connect="1" arrows="1" fold="1" page="1" pageScale="1" pageWidth="2400" pageHeight="1500" math="0" shadow="0">
            <root>
                <mxCell id="0"/>
                <mxCell id="1" parent="0"/>
                <mxCell id="38" style="edgeStyle=none;html=1;exitX=1;exitY=0.5;exitDx=0;exitDy=0;entryX=0.5;entryY=1;entryDx=0;entryDy=0;" parent="1" source="2" target="37" edge="1">
                    <mxGeometry relative="1" as="geometry"/>
                </mxCell>
                <mxCell id="2" value="Instruction Memory" style="rounded=1;whiteSpace=wrap;html=1;" parent="1" vertex="1">
                    <mxGeometry x="450" y="625" width="80" height="80" as="geometry"/>
                </mxCell>
                <mxCell id="5" value="IF/ID" style="endArrow=none;dashed=1;html=1;dashPattern=1 3;strokeWidth=2;" parent="1" edge="1">
                    <mxGeometry width="50" height="50" relative="1" as="geometry">
                        <mxPoint x="610" y="1144.081081081081" as="sourcePoint"/>
                        <mxPoint x="610" y="223" as="targetPoint"/>
                    </mxGeometry>
                </mxCell>
                <mxCell id="19" style="edgeStyle=none;html=1;exitX=0.5;exitY=0;exitDx=0;exitDy=0;" parent="1" source="14" target="18" edge="1">
                    <mxGeometry relative="1" as="geometry"/>
                </mxCell>
                <mxCell id="14" value="PCMux" style="shape=trapezoid;perimeter=trapezoidPerimeter;whiteSpace=wrap;html=1;fixedSize=1;rotation=90;" parent="1" vertex="1">
                    <mxGeometry x="260" y="615" width="110" height="50" as="geometry"/>
                </mxCell>
                <mxCell id="36" style="edgeStyle=none;html=1;exitX=1;exitY=0.5;exitDx=0;exitDy=0;entryX=0.167;entryY=0.497;entryDx=0;entryDy=0;entryPerimeter=0;" parent="1" source="18" target="30" edge="1">
                    <mxGeometry relative="1" as="geometry"/>
                </mxCell>
                <mxCell id="124" value="PC" style="edgeStyle=none;html=1;entryX=0;entryY=0.25;entryDx=0;entryDy=0;" parent="1" source="18" target="21" edge="1">
                    <mxGeometry relative="1" as="geometry">
                        <mxPoint x="430" y="475" as="targetPoint"/>
                        <Array as="points">
                            <mxPoint x="430" y="640"/>
                            <mxPoint x="430" y="483"/>
                        </Array>
                    </mxGeometry>
                </mxCell>
                <mxCell id="195" style="edgeStyle=none;html=1;entryX=0;entryY=0.5;entryDx=0;entryDy=0;" parent="1" source="18" target="196" edge="1">
                    <mxGeometry relative="1" as="geometry">
                        <mxPoint x="720" y="565" as="targetPoint"/>
                        <Array as="points">
                            <mxPoint x="430" y="640"/>
                            <mxPoint x="430" y="565"/>
                        </Array>
                    </mxGeometry>
                </mxCell>
                <mxCell id="18" value="PC" style="rounded=0;whiteSpace=wrap;html=1;" parent="1" vertex="1">
                    <mxGeometry x="370" y="595" width="40" height="90" as="geometry"/>
                </mxCell>
                <mxCell id="26" value="4" style="edgeStyle=none;html=1;entryX=0;entryY=0.75;entryDx=0;entryDy=0;" parent="1" target="21" edge="1">
                    <mxGeometry relative="1" as="geometry">
                        <mxPoint x="450" y="507" as="sourcePoint"/>
                    </mxGeometry>
                </mxCell>
                <mxCell id="27" value="PC+4" style="edgeStyle=none;html=1;entryX=0.25;entryY=1;entryDx=0;entryDy=0;" parent="1" source="21" target="14" edge="1">
                    <mxGeometry relative="1" as="geometry">
                        <mxPoint x="260" y="625" as="targetPoint"/>
                        <Array as="points">
                            <mxPoint x="550" y="470"/>
                            <mxPoint x="550" y="425"/>
                            <mxPoint x="260" y="425"/>
                            <mxPoint x="260" y="613"/>
                        </Array>
                    </mxGeometry>
                </mxCell>
                <mxCell id="21" value="ADD" style="shape=step;perimeter=stepPerimeter;whiteSpace=wrap;html=1;fixedSize=1;" parent="1" vertex="1">
                    <mxGeometry x="470" y="455" width="70" height="80" as="geometry"/>
                </mxCell>
                <mxCell id="28" value="0" style="text;html=1;strokeColor=none;fillColor=none;align=center;verticalAlign=middle;whiteSpace=wrap;rounded=0;" parent="1" vertex="1">
                    <mxGeometry x="290" y="600" width="20" height="15" as="geometry"/>
                </mxCell>
                <mxCell id="29" value="1" style="text;html=1;strokeColor=none;fillColor=none;align=center;verticalAlign=middle;whiteSpace=wrap;rounded=0;" parent="1" vertex="1">
                    <mxGeometry x="290" y="661" width="20" height="15" as="geometry"/>
                </mxCell>
                <mxCell id="30" value="Addr" style="text;html=1;strokeColor=none;fillColor=none;align=center;verticalAlign=middle;whiteSpace=wrap;rounded=0;" parent="1" vertex="1">
                    <mxGeometry x="440" y="625" width="60" height="30" as="geometry"/>
                </mxCell>
                <mxCell id="43" value="Opcode, Funct3, Funct7" style="edgeStyle=none;html=1;exitX=0.5;exitY=0;exitDx=0;exitDy=0;entryX=0.5;entryY=1;entryDx=0;entryDy=0;" parent="1" source="37" target="42" edge="1">
                    <mxGeometry relative="1" as="geometry">
                        <Array as="points">
                            <mxPoint x="660" y="665"/>
                        </Array>
                    </mxGeometry>
                </mxCell>
                <mxCell id="45" style="edgeStyle=none;html=1;entryX=0;entryY=0.5;entryDx=0;entryDy=0;" parent="1" source="37" target="41" edge="1">
                    <mxGeometry relative="1" as="geometry"/>
                </mxCell>
                <mxCell id="49" value="rs1, rs2" style="edgeLabel;html=1;align=center;verticalAlign=middle;resizable=0;points=[];" parent="45" vertex="1" connectable="0">
                    <mxGeometry x="0.1262" relative="1" as="geometry">
                        <mxPoint x="21" as="offset"/>
                    </mxGeometry>
                </mxCell>
                <mxCell id="82" style="edgeStyle=none;html=1;exitX=0.5;exitY=0;exitDx=0;exitDy=0;entryX=0;entryY=0.5;entryDx=0;entryDy=0;" parent="1" source="37" target="70" edge="1">
                    <mxGeometry relative="1" as="geometry">
                        <Array as="points">
                            <mxPoint x="670" y="665"/>
                            <mxPoint x="670" y="790"/>
                        </Array>
                        <mxPoint x="759.9999999999998" y="790" as="targetPoint"/>
                    </mxGeometry>
                </mxCell>
                <mxCell id="211" style="edgeStyle=none;html=1;exitX=0.5;exitY=0;exitDx=0;exitDy=0;entryX=0.032;entryY=0.779;entryDx=0;entryDy=0;entryPerimeter=0;" parent="1" source="37" target="212" edge="1">
                    <mxGeometry relative="1" as="geometry">
                        <mxPoint x="620" y="220" as="targetPoint"/>
                        <Array as="points">
                            <mxPoint x="600" y="202"/>
                        </Array>
                    </mxGeometry>
                </mxCell>
                <mxCell id="218" style="edgeStyle=none;html=1;exitX=0.021;exitY=0.283;exitDx=0;exitDy=0;exitPerimeter=0;" parent="1" source="212" target="37" edge="1">
                    <mxGeometry relative="1" as="geometry">
                        <Array as="points">
                            <mxPoint x="575" y="163"/>
                        </Array>
                    </mxGeometry>
                </mxCell>
                <mxCell id="37" value="IR" style="rounded=0;whiteSpace=wrap;html=1;direction=south;" parent="1" vertex="1">
                    <mxGeometry x="550" y="615" width="50" height="100" as="geometry"/>
                </mxCell>
                <mxCell id="41" value="Register&lt;br&gt;File" style="whiteSpace=wrap;html=1;aspect=fixed;" parent="1" vertex="1">
                    <mxGeometry x="760" y="587.5" width="155" height="155" as="geometry"/>
                </mxCell>
                <mxCell id="56" value="MemToReg&lt;br&gt;MemWrite" style="edgeStyle=none;html=1;exitX=0.5;exitY=0;exitDx=0;exitDy=0;entryX=0;entryY=0.5;entryDx=0;entryDy=0;" parent="1" source="205" target="44" edge="1">
                    <mxGeometry relative="1" as="geometry">
                        <Array as="points">
                            <mxPoint x="840" y="355"/>
                        </Array>
                    </mxGeometry>
                </mxCell>
                <mxCell id="57" value="Branch&lt;br&gt;MemWrite&lt;br&gt;MemRead" style="edgeStyle=none;html=1;entryX=0;entryY=0.25;entryDx=0;entryDy=0;" parent="1" source="205" target="46" edge="1">
                    <mxGeometry relative="1" as="geometry">
                        <Array as="points">
                            <mxPoint x="798" y="395"/>
                        </Array>
                    </mxGeometry>
                </mxCell>
                <mxCell id="58" value="ALUOp&lt;br&gt;ALUMuxSel" style="edgeStyle=none;html=1;exitX=0.5;exitY=0;exitDx=0;exitDy=0;entryX=0;entryY=0.75;entryDx=0;entryDy=0;" parent="1" source="205" target="47" edge="1">
                    <mxGeometry relative="1" as="geometry">
                        <Array as="points">
                            <mxPoint x="850" y="475"/>
                        </Array>
                    </mxGeometry>
                </mxCell>
                <mxCell id="208" style="edgeStyle=none;html=1;exitX=1;exitY=0.5;exitDx=0;exitDy=0;entryX=0.25;entryY=1;entryDx=0;entryDy=0;" parent="1" source="42" target="205" edge="1">
                    <mxGeometry relative="1" as="geometry">
                        <Array as="points">
                            <mxPoint x="700" y="365"/>
                        </Array>
                    </mxGeometry>
                </mxCell>
                <mxCell id="42" value="Control&lt;br&gt;ROM" style="ellipse;whiteSpace=wrap;html=1;aspect=fixed;" parent="1" vertex="1">
                    <mxGeometry x="620" y="330" width="80" height="80" as="geometry"/>
                </mxCell>
                <mxCell id="150" value="MemToReg" style="edgeStyle=none;html=1;exitX=1;exitY=0.5;exitDx=0;exitDy=0;entryX=0;entryY=0.5;entryDx=0;entryDy=0;" parent="1" source="44" target="145" edge="1">
                    <mxGeometry relative="1" as="geometry">
                        <Array as="points">
                            <mxPoint x="1070" y="335"/>
                            <mxPoint x="1070" y="245"/>
                            <mxPoint x="1290" y="245"/>
                            <mxPoint x="1290" y="475"/>
                        </Array>
                    </mxGeometry>
                </mxCell>
                <mxCell id="44" value="WB" style="rounded=0;whiteSpace=wrap;html=1;" parent="1" vertex="1">
                    <mxGeometry x="909" y="315" width="50" height="40" as="geometry"/>
                </mxCell>
                <mxCell id="149" style="edgeStyle=none;html=1;entryX=0;entryY=0.5;entryDx=0;entryDy=0;" parent="1" source="46" target="146" edge="1">
                    <mxGeometry relative="1" as="geometry">
                        <Array as="points">
                            <mxPoint x="980" y="435"/>
                        </Array>
                    </mxGeometry>
                </mxCell>
                <mxCell id="215" style="edgeStyle=none;html=1;entryX=1;entryY=0;entryDx=0;entryDy=0;" parent="1" source="46" target="212" edge="1">
                    <mxGeometry relative="1" as="geometry">
                        <Array as="points">
                            <mxPoint x="1050" y="405"/>
                            <mxPoint x="1050" y="150"/>
                        </Array>
                    </mxGeometry>
                </mxCell>
                <mxCell id="216" value="MemRead" style="edgeLabel;html=1;align=center;verticalAlign=middle;resizable=0;points=[];" parent="215" vertex="1" connectable="0">
                    <mxGeometry x="0.1847" y="3" relative="1" as="geometry">
                        <mxPoint as="offset"/>
                    </mxGeometry>
                </mxCell>
                <mxCell id="46" value="MEM" style="rounded=0;whiteSpace=wrap;html=1;" parent="1" vertex="1">
                    <mxGeometry x="910" y="385" width="50" height="40" as="geometry"/>
                </mxCell>
                <mxCell id="115" value="ALUMuxSel2" style="edgeStyle=none;html=1;exitX=1;exitY=0.5;exitDx=0;exitDy=0;entryX=0;entryY=0.5;entryDx=0;entryDy=0;" parent="1" target="86" edge="1">
                    <mxGeometry x="0.8598" relative="1" as="geometry">
                        <Array as="points">
                            <mxPoint x="1140" y="466"/>
                        </Array>
                        <mxPoint as="offset"/>
                        <mxPoint x="961" y="466" as="sourcePoint"/>
                        <mxPoint x="1210" y="600" as="targetPoint"/>
                    </mxGeometry>
                </mxCell>
                <mxCell id="233" style="edgeStyle=none;html=1;entryX=0;entryY=0.5;entryDx=0;entryDy=0;" parent="1" source="47" edge="1">
                    <mxGeometry relative="1" as="geometry">
                        <Array as="points">
                            <mxPoint x="1130" y="465"/>
                        </Array>
                    </mxGeometry>
                </mxCell>
                <mxCell id="248" style="edgeStyle=none;html=1;entryX=0;entryY=0.5;entryDx=0;entryDy=0;" parent="1" source="47" target="243" edge="1">
                    <mxGeometry relative="1" as="geometry">
                        <Array as="points">
                            <mxPoint x="1090" y="465"/>
                        </Array>
                    </mxGeometry>
                </mxCell>
                <mxCell id="249" value="ALUMuxSel1" style="edgeLabel;html=1;align=center;verticalAlign=middle;resizable=0;points=[];" parent="248" vertex="1" connectable="0">
                    <mxGeometry x="0.5954" y="-1" relative="1" as="geometry">
                        <mxPoint as="offset"/>
                    </mxGeometry>
                </mxCell>
                <mxCell id="47" value="EX" style="rounded=0;whiteSpace=wrap;html=1;" parent="1" vertex="1">
                    <mxGeometry x="911" y="445" width="50" height="40" as="geometry"/>
                </mxCell>
                <mxCell id="101" style="edgeStyle=none;html=1;exitX=1;exitY=0.5;exitDx=0;exitDy=0;entryX=0.75;entryY=1;entryDx=0;entryDy=0;" parent="1" source="53" target="243" edge="1">
                    <mxGeometry relative="1" as="geometry">
                        <Array as="points">
                            <mxPoint x="1020" y="626"/>
                            <mxPoint x="1020" y="577"/>
                        </Array>
                        <mxPoint x="1070" y="550" as="targetPoint"/>
                    </mxGeometry>
                </mxCell>
                <mxCell id="223" style="edgeStyle=none;html=1;entryX=0;entryY=0;entryDx=0;entryDy=0;" parent="1" source="53" target="221" edge="1">
                    <mxGeometry relative="1" as="geometry">
                        <Array as="points">
                            <mxPoint x="970" y="1002"/>
                        </Array>
                    </mxGeometry>
                </mxCell>
                <mxCell id="224" value="RD1" style="edgeLabel;html=1;align=center;verticalAlign=middle;resizable=0;points=[];" parent="223" vertex="1" connectable="0">
                    <mxGeometry x="0.6666" relative="1" as="geometry">
                        <mxPoint as="offset"/>
                    </mxGeometry>
                </mxCell>
                <mxCell id="53" value="RD1" style="rounded=0;whiteSpace=wrap;html=1;" parent="1" vertex="1">
                    <mxGeometry x="950" y="616" width="40" height="20" as="geometry"/>
                </mxCell>
                <mxCell id="107" style="edgeStyle=none;html=1;exitX=1;exitY=0.5;exitDx=0;exitDy=0;entryX=0.25;entryY=1;entryDx=0;entryDy=0;" parent="1" source="59" target="86" edge="1">
                    <mxGeometry relative="1" as="geometry">
                        <Array as="points">
                            <mxPoint x="1020" y="704"/>
                            <mxPoint x="1060" y="704"/>
                            <mxPoint x="1060" y="678"/>
                        </Array>
                    </mxGeometry>
                </mxCell>
                <mxCell id="165" style="edgeStyle=none;html=1;exitX=1;exitY=0.5;exitDx=0;exitDy=0;entryX=0;entryY=0.5;entryDx=0;entryDy=0;" parent="1" source="59" target="164" edge="1">
                    <mxGeometry relative="1" as="geometry">
                        <Array as="points">
                            <mxPoint x="1090" y="704"/>
                            <mxPoint x="1090" y="825"/>
                            <mxPoint x="1210" y="825"/>
                            <mxPoint x="1310" y="825"/>
                            <mxPoint x="1310" y="770"/>
                        </Array>
                    </mxGeometry>
                </mxCell>
                <mxCell id="222" style="edgeStyle=none;html=1;entryX=0;entryY=0.5;entryDx=0;entryDy=0;" parent="1" source="59" target="221" edge="1">
                    <mxGeometry relative="1" as="geometry">
                        <mxPoint x="1220" y="1050" as="targetPoint"/>
                        <Array as="points">
                            <mxPoint x="970" y="1030"/>
                        </Array>
                    </mxGeometry>
                </mxCell>
                <mxCell id="225" value="RD2" style="edgeLabel;html=1;align=center;verticalAlign=middle;resizable=0;points=[];" parent="222" vertex="1" connectable="0">
                    <mxGeometry x="0.6664" y="1" relative="1" as="geometry">
                        <mxPoint x="8" y="1" as="offset"/>
                    </mxGeometry>
                </mxCell>
                <mxCell id="59" value="RD2" style="rounded=0;whiteSpace=wrap;html=1;" parent="1" vertex="1">
                    <mxGeometry x="950" y="694" width="40" height="20" as="geometry"/>
                </mxCell>
                <mxCell id="63" value="" style="endArrow=classic;html=1;exitX=1;exitY=0.75;exitDx=0;exitDy=0;entryX=0;entryY=0.5;entryDx=0;entryDy=0;" parent="1" source="41" target="59" edge="1">
                    <mxGeometry width="50" height="50" relative="1" as="geometry">
                        <mxPoint x="940" y="680" as="sourcePoint"/>
                        <mxPoint x="940" y="704" as="targetPoint"/>
                    </mxGeometry>
                </mxCell>
                <mxCell id="65" value="" style="endArrow=classic;html=1;exitX=1;exitY=0.25;exitDx=0;exitDy=0;entryX=0;entryY=0.5;entryDx=0;entryDy=0;" parent="1" source="41" target="53" edge="1">
                    <mxGeometry width="50" height="50" relative="1" as="geometry">
                        <mxPoint x="930" y="637.5" as="sourcePoint"/>
                        <mxPoint x="940" y="626" as="targetPoint"/>
                    </mxGeometry>
                </mxCell>
                <mxCell id="69" style="edgeStyle=none;html=1;exitX=0.5;exitY=0;exitDx=0;exitDy=0;entryX=0;entryY=0.5;entryDx=0;entryDy=0;" parent="1" source="37" target="72" edge="1">
                    <mxGeometry relative="1" as="geometry">
                        <mxPoint x="750" y="865" as="targetPoint"/>
                        <mxPoint x="640" y="675" as="sourcePoint"/>
                        <Array as="points">
                            <mxPoint x="670" y="665"/>
                            <mxPoint x="670" y="870"/>
                        </Array>
                    </mxGeometry>
                </mxCell>
                <mxCell id="81" value="INST" style="edgeLabel;html=1;align=center;verticalAlign=middle;resizable=0;points=[];" parent="69" vertex="1" connectable="0">
                    <mxGeometry x="-0.2125" y="1" relative="1" as="geometry">
                        <mxPoint x="-1" y="-32" as="offset"/>
                    </mxGeometry>
                </mxCell>
                <mxCell id="123" style="edgeStyle=none;html=1;exitX=1;exitY=0.5;exitDx=0;exitDy=0;entryX=0.5;entryY=1;entryDx=0;entryDy=0;" parent="1" source="70" target="86" edge="1">
                    <mxGeometry relative="1" as="geometry">
                        <Array as="points">
                            <mxPoint x="1071" y="790"/>
                            <mxPoint x="1071" y="700"/>
                        </Array>
                        <mxPoint x="920" y="805" as="sourcePoint"/>
                        <mxPoint x="1040" y="600" as="targetPoint"/>
                    </mxGeometry>
                </mxCell>
                <mxCell id="174" style="edgeStyle=none;html=1;entryX=0.75;entryY=1;entryDx=0;entryDy=0;exitX=1;exitY=0.5;exitDx=0;exitDy=0;" parent="1" source="70" target="86" edge="1">
                    <mxGeometry relative="1" as="geometry">
                        <Array as="points">
                            <mxPoint x="1070" y="790"/>
                            <mxPoint x="1070" y="723"/>
                        </Array>
                        <mxPoint x="910" y="785" as="sourcePoint"/>
                    </mxGeometry>
                </mxCell>
                <mxCell id="70" value="imm_*" style="rounded=0;whiteSpace=wrap;html=1;" parent="1" vertex="1">
                    <mxGeometry x="740" y="780" width="70" height="20" as="geometry"/>
                </mxCell>
                <mxCell id="96" style="edgeStyle=none;html=1;entryX=0;entryY=0.5;entryDx=0;entryDy=0;" parent="1" source="72" target="109" edge="1">
                    <mxGeometry relative="1" as="geometry">
                        <mxPoint x="1051.63" y="872.7025000000001" as="targetPoint"/>
                        <Array as="points">
                            <mxPoint x="920" y="873"/>
                        </Array>
                    </mxGeometry>
                </mxCell>
                <mxCell id="213" style="edgeStyle=none;html=1;entryX=1;entryY=0.5;entryDx=0;entryDy=0;" parent="1" source="72" target="212" edge="1">
                    <mxGeometry relative="1" as="geometry">
                        <mxPoint x="1010" y="88.0952380952381" as="targetPoint"/>
                        <Array as="points">
                            <mxPoint x="1010" y="870"/>
                            <mxPoint x="1010" y="180"/>
                        </Array>
                    </mxGeometry>
                </mxCell>
                <mxCell id="72" value="RD" style="rounded=0;whiteSpace=wrap;html=1;" parent="1" vertex="1">
                    <mxGeometry x="841" y="860" width="70" height="20" as="geometry"/>
                </mxCell>
                <mxCell id="73" value="ID/EX" style="endArrow=none;dashed=1;html=1;dashPattern=1 3;strokeWidth=2;" parent="1" edge="1">
                    <mxGeometry width="50" height="50" relative="1" as="geometry">
                        <mxPoint x="1027" y="1144.0810810810808" as="sourcePoint"/>
                        <mxPoint x="1027" y="223" as="targetPoint"/>
                    </mxGeometry>
                </mxCell>
                <mxCell id="130" style="edgeStyle=none;html=1;exitX=1;exitY=0.5;exitDx=0;exitDy=0;entryX=0.5;entryY=1;entryDx=0;entryDy=0;" parent="1" source="84" target="126" edge="1">
                    <mxGeometry relative="1" as="geometry"/>
                </mxCell>
                <mxCell id="135" style="edgeStyle=none;html=1;exitX=1;exitY=0.5;exitDx=0;exitDy=0;entryX=0.5;entryY=1;entryDx=0;entryDy=0;" parent="1" source="84" target="134" edge="1">
                    <mxGeometry relative="1" as="geometry">
                        <Array as="points">
                            <mxPoint x="1350" y="608"/>
                            <mxPoint x="1350" y="560"/>
                        </Array>
                    </mxGeometry>
                </mxCell>
                <mxCell id="84" value="ALU &amp;amp;&lt;br&gt;CMP" style="shape=step;perimeter=stepPerimeter;whiteSpace=wrap;html=1;fixedSize=1;" parent="1" vertex="1">
                    <mxGeometry x="1269" y="567.5" width="71" height="80" as="geometry"/>
                </mxCell>
                <mxCell id="237" style="edgeStyle=none;html=1;entryX=0.25;entryY=1;entryDx=0;entryDy=0;" parent="1" source="86" target="236" edge="1">
                    <mxGeometry relative="1" as="geometry">
                        <mxPoint x="1190" y="690" as="targetPoint"/>
                    </mxGeometry>
                </mxCell>
                <mxCell id="86" value="ALU MUX 2" style="shape=trapezoid;perimeter=trapezoidPerimeter;whiteSpace=wrap;html=1;fixedSize=1;direction=south;" parent="1" vertex="1">
                    <mxGeometry x="1110" y="655" width="60" height="90" as="geometry"/>
                </mxCell>
                <mxCell id="182" style="edgeStyle=none;html=1;entryX=0;entryY=0.5;entryDx=0;entryDy=0;" parent="1" source="109" target="181" edge="1">
                    <mxGeometry relative="1" as="geometry">
                        <Array as="points">
                            <mxPoint x="1320" y="870"/>
                            <mxPoint x="1320" y="892"/>
                        </Array>
                    </mxGeometry>
                </mxCell>
                <mxCell id="226" style="edgeStyle=none;html=1;exitX=1;exitY=0.5;exitDx=0;exitDy=0;entryX=1;entryY=0;entryDx=0;entryDy=0;" parent="1" source="109" target="221" edge="1">
                    <mxGeometry relative="1" as="geometry">
                        <Array as="points">
                            <mxPoint x="1282" y="872"/>
                        </Array>
                    </mxGeometry>
                </mxCell>
                <mxCell id="109" value="RD" style="rounded=0;whiteSpace=wrap;html=1;" parent="1" vertex="1">
                    <mxGeometry x="1130" y="852.0000000000001" width="50" height="40" as="geometry"/>
                </mxCell>
                <mxCell id="160" style="edgeStyle=none;html=1;entryX=0;entryY=0.25;entryDx=0;entryDy=0;" parent="1" source="126" target="154" edge="1">
                    <mxGeometry relative="1" as="geometry">
                        <Array as="points">
                            <mxPoint x="1500" y="608"/>
                            <mxPoint x="1500" y="668"/>
                        </Array>
                    </mxGeometry>
                </mxCell>
                <mxCell id="163" style="edgeStyle=none;html=1;entryX=0.5;entryY=1;entryDx=0;entryDy=0;" parent="1" source="126" target="162" edge="1">
                    <mxGeometry relative="1" as="geometry">
                        <Array as="points">
                            <mxPoint x="1500" y="608"/>
                            <mxPoint x="1500" y="830"/>
                        </Array>
                    </mxGeometry>
                </mxCell>
                <mxCell id="239" style="edgeStyle=none;html=1;entryX=0.5;entryY=1;entryDx=0;entryDy=0;" parent="1" source="126" target="236" edge="1">
                    <mxGeometry relative="1" as="geometry">
                        <mxPoint x="1190" y="710" as="targetPoint"/>
                        <Array as="points">
                            <mxPoint x="1470" y="608"/>
                            <mxPoint x="1470" y="800"/>
                            <mxPoint x="1180" y="800"/>
                            <mxPoint x="1180" y="724"/>
                        </Array>
                    </mxGeometry>
                </mxCell>
                <mxCell id="250" style="edgeStyle=none;html=1;exitX=0.5;exitY=0;exitDx=0;exitDy=0;entryX=0.5;entryY=1;entryDx=0;entryDy=0;" parent="1" source="126" target="242" edge="1">
                    <mxGeometry relative="1" as="geometry">
                        <Array as="points">
                            <mxPoint x="1450" y="608"/>
                            <mxPoint x="1450" y="650"/>
                            <mxPoint x="1150" y="650"/>
                            <mxPoint x="1150" y="595"/>
                        </Array>
                    </mxGeometry>
                </mxCell>
                <mxCell id="126" value="ALUOut" style="rounded=0;whiteSpace=wrap;html=1;direction=south;" parent="1" vertex="1">
                    <mxGeometry x="1370" y="577.5" width="50" height="60" as="geometry"/>
                </mxCell>
                <mxCell id="131" style="edgeStyle=none;html=1;entryX=0.75;entryY=1;entryDx=0;entryDy=0;exitX=0.5;exitY=0;exitDx=0;exitDy=0;" parent="1" source="126" target="14" edge="1">
                    <mxGeometry relative="1" as="geometry">
                        <mxPoint x="280" y="665" as="targetPoint"/>
                        <mxPoint x="1420" y="580" as="sourcePoint"/>
                        <Array as="points">
                            <mxPoint x="1460" y="608"/>
                            <mxPoint x="1460" y="295"/>
                            <mxPoint x="250" y="295"/>
                            <mxPoint x="250" y="668"/>
                        </Array>
                    </mxGeometry>
                </mxCell>
                <mxCell id="136" value="0" style="edgeStyle=none;html=1;entryX=0.5;entryY=0;entryDx=0;entryDy=0;" parent="1" target="134" edge="1">
                    <mxGeometry relative="1" as="geometry">
                        <mxPoint x="1350" y="485" as="sourcePoint"/>
                    </mxGeometry>
                </mxCell>
                <mxCell id="139" style="edgeStyle=none;html=1;exitX=1;exitY=0.5;exitDx=0;exitDy=0;entryX=0.5;entryY=1;entryDx=0;entryDy=0;" parent="1" source="134" target="138" edge="1">
                    <mxGeometry relative="1" as="geometry"/>
                </mxCell>
                <mxCell id="134" value="=" style="ellipse;whiteSpace=wrap;html=1;aspect=fixed;" parent="1" vertex="1">
                    <mxGeometry x="1340" y="515" width="20" height="20" as="geometry"/>
                </mxCell>
                <mxCell id="143" style="edgeStyle=none;html=1;entryX=0;entryY=0.75;entryDx=0;entryDy=0;entryPerimeter=0;" parent="1" source="138" target="141" edge="1">
                    <mxGeometry relative="1" as="geometry">
                        <Array as="points">
                            <mxPoint x="1470" y="525"/>
                            <mxPoint x="1470" y="580"/>
                        </Array>
                    </mxGeometry>
                </mxCell>
                <mxCell id="138" value="ALUZero" style="rounded=0;whiteSpace=wrap;html=1;direction=south;" parent="1" vertex="1">
                    <mxGeometry x="1380" y="515" width="55" height="20" as="geometry"/>
                </mxCell>
                <mxCell id="152" style="edgeStyle=none;html=1;entryX=1;entryY=0.5;entryDx=0;entryDy=0;" parent="1" edge="1">
                    <mxGeometry relative="1" as="geometry">
                        <mxPoint x="317" y="685" as="targetPoint"/>
                        <Array as="points">
                            <mxPoint x="1592" y="565"/>
                            <mxPoint x="1592" y="930"/>
                            <mxPoint x="317" y="930"/>
                        </Array>
                        <mxPoint x="1562" y="565" as="sourcePoint"/>
                    </mxGeometry>
                </mxCell>
                <mxCell id="153" value="PCMuxSel" style="edgeLabel;html=1;align=center;verticalAlign=middle;resizable=0;points=[];" parent="152" vertex="1" connectable="0">
                    <mxGeometry x="0.9409" y="1" relative="1" as="geometry">
                        <mxPoint as="offset"/>
                    </mxGeometry>
                </mxCell>
                <mxCell id="254" value="IF_FLUSH" style="edgeStyle=none;html=1;exitX=1;exitY=0.5;exitDx=0;exitDy=0;exitPerimeter=0;entryX=0.25;entryY=0;entryDx=0;entryDy=0;" parent="1" source="141" target="196" edge="1">
                    <mxGeometry relative="1" as="geometry">
                        <Array as="points">
                            <mxPoint x="1560" y="270"/>
                            <mxPoint x="1560" y="120"/>
                            <mxPoint x="490" y="120"/>
                            <mxPoint x="490" y="340"/>
                            <mxPoint x="553" y="340"/>
                        </Array>
                    </mxGeometry>
                </mxCell>
                <mxCell id="255" style="edgeStyle=none;html=1;entryX=1;entryY=0.5;entryDx=0;entryDy=0;" parent="1" source="141" target="37" edge="1">
                    <mxGeometry relative="1" as="geometry">
                        <Array as="points">
                            <mxPoint x="1590" y="565"/>
                            <mxPoint x="1590" y="930"/>
                            <mxPoint x="575" y="930"/>
                        </Array>
                    </mxGeometry>
                </mxCell>
                <mxCell id="256" value="IF_FLUSH" style="edgeLabel;html=1;align=center;verticalAlign=middle;resizable=0;points=[];" parent="255" vertex="1" connectable="0">
                    <mxGeometry x="0.9211" y="-3" relative="1" as="geometry">
                        <mxPoint as="offset"/>
                    </mxGeometry>
                </mxCell>
                <mxCell id="141" value="" style="shape=or;whiteSpace=wrap;html=1;" parent="1" vertex="1">
                    <mxGeometry x="1500" y="535" width="60" height="60" as="geometry"/>
                </mxCell>
                <mxCell id="144" value="EX/Mem" style="endArrow=none;dashed=1;html=1;dashPattern=1 3;strokeWidth=2;" parent="1" edge="1">
                    <mxGeometry width="50" height="50" relative="1" as="geometry">
                        <mxPoint x="1440" y="1141.0810810810808" as="sourcePoint"/>
                        <mxPoint x="1440" y="220" as="targetPoint"/>
                    </mxGeometry>
                </mxCell>
                <mxCell id="157" style="edgeStyle=none;html=1;exitX=1;exitY=0.75;exitDx=0;exitDy=0;entryX=0;entryY=0.5;entryDx=0;entryDy=0;" parent="1" source="145" target="155" edge="1">
                    <mxGeometry relative="1" as="geometry"/>
                </mxCell>
                <mxCell id="145" value="WB" style="rounded=0;whiteSpace=wrap;html=1;" parent="1" vertex="1">
                    <mxGeometry x="1370" y="455" width="50" height="40" as="geometry"/>
                </mxCell>
                <mxCell id="151" value="Branch" style="edgeStyle=none;html=1;entryX=-0.015;entryY=0.329;entryDx=0;entryDy=0;entryPerimeter=0;" parent="1" source="146" target="141" edge="1">
                    <mxGeometry x="-0.0959" relative="1" as="geometry">
                        <Array as="points">
                            <mxPoint x="1480" y="435"/>
                            <mxPoint x="1480" y="555"/>
                        </Array>
                        <mxPoint as="offset"/>
                    </mxGeometry>
                </mxCell>
                <mxCell id="168" value="MemRead" style="edgeStyle=none;html=1;exitX=1;exitY=0.5;exitDx=0;exitDy=0;entryX=0.25;entryY=0;entryDx=0;entryDy=0;" parent="1" source="146" target="154" edge="1">
                    <mxGeometry x="0.6954" relative="1" as="geometry">
                        <mxPoint x="1690" y="625" as="targetPoint"/>
                        <Array as="points">
                            <mxPoint x="1649" y="435"/>
                        </Array>
                        <mxPoint as="offset"/>
                    </mxGeometry>
                </mxCell>
                <mxCell id="146" value="MEM" style="rounded=0;whiteSpace=wrap;html=1;" parent="1" vertex="1">
                    <mxGeometry x="1370" y="415" width="50" height="40" as="geometry"/>
                </mxCell>
                <mxCell id="167" value="MemWrite" style="edgeStyle=none;html=1;exitX=1;exitY=0.25;exitDx=0;exitDy=0;" parent="1" source="146" target="154" edge="1">
                    <mxGeometry x="0.854" relative="1" as="geometry">
                        <Array as="points">
                            <mxPoint x="1450" y="425"/>
                            <mxPoint x="1450" y="515"/>
                            <mxPoint x="1688" y="515"/>
                        </Array>
                        <mxPoint as="offset"/>
                    </mxGeometry>
                </mxCell>
                <mxCell id="154" value="Data Memory" style="whiteSpace=wrap;html=1;aspect=fixed;" parent="1" vertex="1">
                    <mxGeometry x="1610" y="629.5" width="155" height="155" as="geometry"/>
                </mxCell>
                <mxCell id="180" value="MemToReg" style="edgeStyle=none;html=1;exitX=1;exitY=0.5;exitDx=0;exitDy=0;entryX=0;entryY=0.5;entryDx=0;entryDy=0;" parent="1" source="155" target="177" edge="1">
                    <mxGeometry relative="1" as="geometry">
                        <Array as="points">
                            <mxPoint x="2140" y="485"/>
                        </Array>
                    </mxGeometry>
                </mxCell>
                <mxCell id="187" style="edgeStyle=none;html=1;entryX=0.75;entryY=0;entryDx=0;entryDy=0;" parent="1" source="155" target="41" edge="1">
                    <mxGeometry relative="1" as="geometry">
                        <mxPoint x="830" y="565" as="targetPoint"/>
                        <Array as="points">
                            <mxPoint x="1710" y="225"/>
                            <mxPoint x="876" y="225"/>
                        </Array>
                    </mxGeometry>
                </mxCell>
                <mxCell id="188" value="RegWrite" style="edgeLabel;html=1;align=center;verticalAlign=middle;resizable=0;points=[];" parent="187" vertex="1" connectable="0">
                    <mxGeometry x="0.9571" relative="1" as="geometry">
                        <mxPoint as="offset"/>
                    </mxGeometry>
                </mxCell>
                <mxCell id="155" value="WB" style="rounded=0;whiteSpace=wrap;html=1;" parent="1" vertex="1">
                    <mxGeometry x="1680" y="465" width="50" height="40" as="geometry"/>
                </mxCell>
                <mxCell id="159" value="Write Data" style="text;html=1;align=center;verticalAlign=middle;resizable=0;points=[];autosize=1;strokeColor=none;fillColor=none;" parent="1" vertex="1">
                    <mxGeometry x="1610" y="735" width="70" height="20" as="geometry"/>
                </mxCell>
                <mxCell id="161" value="Address" style="text;html=1;align=center;verticalAlign=middle;resizable=0;points=[];autosize=1;strokeColor=none;fillColor=none;" parent="1" vertex="1">
                    <mxGeometry x="1610" y="658.5" width="60" height="20" as="geometry"/>
                </mxCell>
                <mxCell id="179" style="edgeStyle=none;html=1;entryX=0.75;entryY=1;entryDx=0;entryDy=0;" parent="1" source="162" target="177" edge="1">
                    <mxGeometry relative="1" as="geometry">
                        <Array as="points">
                            <mxPoint x="1980" y="830"/>
                            <mxPoint x="1980" y="690"/>
                        </Array>
                        <mxPoint x="2070" y="695" as="targetPoint"/>
                    </mxGeometry>
                </mxCell>
                <mxCell id="162" value="ALUOut" style="rounded=0;whiteSpace=wrap;html=1;direction=south;" parent="1" vertex="1">
                    <mxGeometry x="1615" y="800" width="50" height="60" as="geometry"/>
                </mxCell>
                <mxCell id="166" style="edgeStyle=none;html=1;exitX=1;exitY=0.5;exitDx=0;exitDy=0;entryX=0;entryY=0.75;entryDx=0;entryDy=0;" parent="1" source="164" target="154" edge="1">
                    <mxGeometry relative="1" as="geometry">
                        <Array as="points">
                            <mxPoint x="1490" y="770"/>
                            <mxPoint x="1490" y="746"/>
                        </Array>
                    </mxGeometry>
                </mxCell>
                <mxCell id="164" value="RD2" style="rounded=0;whiteSpace=wrap;html=1;" parent="1" vertex="1">
                    <mxGeometry x="1360" y="760" width="40" height="20" as="geometry"/>
                </mxCell>
                <mxCell id="170" value="" style="endArrow=classic;html=1;exitX=1;exitY=0.25;exitDx=0;exitDy=0;" parent="1" source="154" edge="1">
                    <mxGeometry width="50" height="50" relative="1" as="geometry">
                        <mxPoint x="1810" y="635" as="sourcePoint"/>
                        <mxPoint x="1790" y="668" as="targetPoint"/>
                    </mxGeometry>
                </mxCell>
                <mxCell id="171" value="Read Data" style="text;html=1;align=center;verticalAlign=middle;resizable=0;points=[];autosize=1;strokeColor=none;fillColor=none;" parent="1" vertex="1">
                    <mxGeometry x="1695" y="658.5" width="70" height="20" as="geometry"/>
                </mxCell>
                <mxCell id="172" value="Mem/WB" style="endArrow=none;dashed=1;html=1;dashPattern=1 3;strokeWidth=2;" parent="1" edge="1">
                    <mxGeometry width="50" height="50" relative="1" as="geometry">
                        <mxPoint x="1870" y="1143.0810810810813" as="sourcePoint"/>
                        <mxPoint x="1870" y="222.00000000000003" as="targetPoint"/>
                    </mxGeometry>
                </mxCell>
                <mxCell id="178" style="edgeStyle=none;html=1;entryX=0.23;entryY=1.013;entryDx=0;entryDy=0;entryPerimeter=0;" parent="1" source="173" target="177" edge="1">
                    <mxGeometry relative="1" as="geometry">
                        <Array as="points">
                            <mxPoint x="1930" y="665"/>
                            <mxPoint x="1930" y="627"/>
                        </Array>
                        <mxPoint x="2080" y="630" as="targetPoint"/>
                    </mxGeometry>
                </mxCell>
                <mxCell id="173" value="Read Data" style="rounded=0;whiteSpace=wrap;html=1;" parent="1" vertex="1">
                    <mxGeometry x="1790" y="650" width="40" height="30" as="geometry"/>
                </mxCell>
                <mxCell id="186" style="edgeStyle=none;html=1;exitX=0.5;exitY=0;exitDx=0;exitDy=0;entryX=0;entryY=0.25;entryDx=0;entryDy=0;" parent="1" source="177" target="41" edge="1">
                    <mxGeometry relative="1" as="geometry">
                        <Array as="points">
                            <mxPoint x="2220" y="660"/>
                            <mxPoint x="2220" y="1075"/>
                            <mxPoint x="700" y="1075"/>
                            <mxPoint x="700" y="626"/>
                        </Array>
                    </mxGeometry>
                </mxCell>
                <mxCell id="189" value="Write Data" style="edgeLabel;html=1;align=center;verticalAlign=middle;resizable=0;points=[];" parent="186" vertex="1" connectable="0">
                    <mxGeometry x="0.9631" relative="1" as="geometry">
                        <mxPoint x="-6" as="offset"/>
                    </mxGeometry>
                </mxCell>
                <mxCell id="240" style="edgeStyle=none;html=1;entryX=0.75;entryY=1;entryDx=0;entryDy=0;" parent="1" source="177" target="236" edge="1">
                    <mxGeometry relative="1" as="geometry">
                        <mxPoint x="1180" y="750" as="targetPoint"/>
                        <Array as="points">
                            <mxPoint x="2220" y="660"/>
                            <mxPoint x="2220" y="1080"/>
                            <mxPoint x="1190" y="1080"/>
                            <mxPoint x="1190" y="746"/>
                        </Array>
                    </mxGeometry>
                </mxCell>
                <mxCell id="251" style="edgeStyle=none;html=1;entryX=0.75;entryY=1;entryDx=0;entryDy=0;" parent="1" source="177" target="242" edge="1">
                    <mxGeometry relative="1" as="geometry">
                        <mxPoint x="1180" y="610" as="targetPoint"/>
                        <Array as="points">
                            <mxPoint x="2220" y="660"/>
                            <mxPoint x="2220" y="1100"/>
                            <mxPoint x="1180" y="1080"/>
                            <mxPoint x="1180" y="620"/>
                        </Array>
                    </mxGeometry>
                </mxCell>
                <mxCell id="177" value="RegFileMux" style="shape=trapezoid;perimeter=trapezoidPerimeter;whiteSpace=wrap;html=1;fixedSize=1;direction=south;" parent="1" vertex="1">
                    <mxGeometry x="2099" y="599.5" width="81" height="120" as="geometry"/>
                </mxCell>
                <mxCell id="184" style="edgeStyle=none;html=1;entryX=0.012;entryY=0.815;entryDx=0;entryDy=0;entryPerimeter=0;" parent="1" source="181" target="41" edge="1">
                    <mxGeometry relative="1" as="geometry">
                        <mxPoint x="730" y="725" as="targetPoint"/>
                        <Array as="points">
                            <mxPoint x="1950" y="892"/>
                            <mxPoint x="1950" y="975"/>
                            <mxPoint x="700" y="975"/>
                            <mxPoint x="700" y="714"/>
                        </Array>
                    </mxGeometry>
                </mxCell>
                <mxCell id="185" value="Write Register" style="edgeLabel;html=1;align=center;verticalAlign=middle;resizable=0;points=[];" parent="184" vertex="1" connectable="0">
                    <mxGeometry x="0.9121" relative="1" as="geometry">
                        <mxPoint x="12" y="-24" as="offset"/>
                    </mxGeometry>
                </mxCell>
                <mxCell id="220" style="edgeStyle=none;html=1;exitX=1;exitY=0.5;exitDx=0;exitDy=0;" parent="1" source="181" target="221" edge="1">
                    <mxGeometry relative="1" as="geometry">
                        <mxPoint x="1278.5714285714287" y="1050" as="targetPoint"/>
                        <Array as="points">
                            <mxPoint x="1740" y="892"/>
                            <mxPoint x="1740" y="1030"/>
                        </Array>
                    </mxGeometry>
                </mxCell>
                <mxCell id="181" value="RD" style="rounded=0;whiteSpace=wrap;html=1;" parent="1" vertex="1">
                    <mxGeometry x="1615" y="872.0300000000001" width="50" height="40" as="geometry"/>
                </mxCell>
                <mxCell id="190" value="1" style="text;html=1;strokeColor=none;fillColor=none;align=center;verticalAlign=middle;whiteSpace=wrap;rounded=0;" parent="1" vertex="1">
                    <mxGeometry x="2099" y="678.5" width="20" height="22.5" as="geometry"/>
                </mxCell>
                <mxCell id="191" value="0" style="text;html=1;align=center;verticalAlign=middle;resizable=0;points=[];autosize=1;strokeColor=none;fillColor=none;" parent="1" vertex="1">
                    <mxGeometry x="2099" y="616" width="20" height="20" as="geometry"/>
                </mxCell>
                <mxCell id="198" style="edgeStyle=none;html=1;entryX=0;entryY=0.5;entryDx=0;entryDy=0;" parent="1" source="196" target="197" edge="1">
                    <mxGeometry relative="1" as="geometry">
                        <Array as="points">
                            <mxPoint x="770" y="565"/>
                            <mxPoint x="770" y="525"/>
                        </Array>
                    </mxGeometry>
                </mxCell>
                <mxCell id="196" value="PC" style="whiteSpace=wrap;html=1;" parent="1" vertex="1">
                    <mxGeometry x="540" y="540" width="50" height="50" as="geometry"/>
                </mxCell>
                <mxCell id="231" style="edgeStyle=none;html=1;entryX=0.25;entryY=1;entryDx=0;entryDy=0;" parent="1" source="197" target="243" edge="1">
                    <mxGeometry relative="1" as="geometry">
                        <mxPoint x="1090" y="350" as="targetPoint"/>
                        <Array as="points">
                            <mxPoint x="1020" y="532"/>
                        </Array>
                    </mxGeometry>
                </mxCell>
                <mxCell id="197" value="PC" style="whiteSpace=wrap;html=1;" parent="1" vertex="1">
                    <mxGeometry x="940" y="500" width="50" height="50" as="geometry"/>
                </mxCell>
                <mxCell id="209" value="0" style="edgeStyle=none;html=1;exitX=0.75;exitY=1;exitDx=0;exitDy=0;entryX=0.75;entryY=1;entryDx=0;entryDy=0;" parent="1" target="205" edge="1">
                    <mxGeometry relative="1" as="geometry">
                        <mxPoint x="709.9999999999999" y="425" as="sourcePoint"/>
                    </mxGeometry>
                </mxCell>
                <mxCell id="205" value="HazardMux" style="shape=trapezoid;perimeter=trapezoidPerimeter;whiteSpace=wrap;html=1;fixedSize=1;direction=south;" parent="1" vertex="1">
                    <mxGeometry x="750" y="335" width="60" height="120" as="geometry"/>
                </mxCell>
                <mxCell id="214" style="edgeStyle=none;html=1;entryX=0;entryY=0.5;entryDx=0;entryDy=0;" parent="1" source="212" target="205" edge="1">
                    <mxGeometry relative="1" as="geometry">
                        <Array as="points">
                            <mxPoint x="780" y="210"/>
                        </Array>
                    </mxGeometry>
                </mxCell>
                <mxCell id="217" style="edgeStyle=none;html=1;entryX=0.5;entryY=0;entryDx=0;entryDy=0;" parent="1" source="212" target="196" edge="1">
                    <mxGeometry relative="1" as="geometry">
                        <mxPoint x="580" y="180" as="targetPoint"/>
                        <Array as="points">
                            <mxPoint x="565" y="180"/>
                        </Array>
                    </mxGeometry>
                </mxCell>
                <mxCell id="212" value="Hazard Detection Unit" style="ellipse;whiteSpace=wrap;html=1;aspect=fixed;" parent="1" vertex="1">
                    <mxGeometry x="640" y="140" width="80" height="80" as="geometry"/>
                </mxCell>
                <mxCell id="219" value="Load/Stall Signal" style="text;html=1;align=center;verticalAlign=middle;resizable=0;points=[];autosize=1;strokeColor=none;fillColor=none;" parent="1" vertex="1">
                    <mxGeometry x="510" y="160" width="110" height="20" as="geometry"/>
                </mxCell>
                <mxCell id="244" style="edgeStyle=none;html=1;entryX=1;entryY=0.5;entryDx=0;entryDy=0;" parent="1" source="221" target="236" edge="1">
                    <mxGeometry relative="1" as="geometry">
                        <Array as="points">
                            <mxPoint x="1235" y="970"/>
                        </Array>
                    </mxGeometry>
                </mxCell>
                <mxCell id="253" style="edgeStyle=none;html=1;entryX=1;entryY=0.5;entryDx=0;entryDy=0;" parent="1" source="221" target="242" edge="1">
                    <mxGeometry relative="1" as="geometry">
                        <Array as="points">
                            <mxPoint x="1225" y="970"/>
                        </Array>
                    </mxGeometry>
                </mxCell>
                <mxCell id="221" value="Forwarding Unit" style="ellipse;whiteSpace=wrap;html=1;" parent="1" vertex="1">
                    <mxGeometry x="1180.0014285714285" y="990" width="120" height="80" as="geometry"/>
                </mxCell>
                <mxCell id="246" style="edgeStyle=none;html=1;entryX=0;entryY=0.75;entryDx=0;entryDy=0;" parent="1" source="236" target="84" edge="1">
                    <mxGeometry relative="1" as="geometry">
                        <Array as="points">
                            <mxPoint x="1283" y="724"/>
                            <mxPoint x="1283" y="680"/>
                            <mxPoint x="1250" y="680"/>
                            <mxPoint x="1250" y="630"/>
                        </Array>
                    </mxGeometry>
                </mxCell>
                <mxCell id="236" value="ForwardMux&lt;br&gt;B" style="shape=trapezoid;perimeter=trapezoidPerimeter;whiteSpace=wrap;html=1;fixedSize=1;direction=south;" parent="1" vertex="1">
                    <mxGeometry x="1200" y="678.5" width="70" height="90" as="geometry"/>
                </mxCell>
                <mxCell id="245" style="edgeStyle=none;html=1;entryX=0;entryY=0.25;entryDx=0;entryDy=0;" parent="1" source="242" target="84" edge="1">
                    <mxGeometry relative="1" as="geometry"/>
                </mxCell>
                <mxCell id="242" value="ForwardMux&lt;br&gt;A" style="shape=trapezoid;perimeter=trapezoidPerimeter;whiteSpace=wrap;html=1;fixedSize=1;direction=south;" parent="1" vertex="1">
                    <mxGeometry x="1190" y="550" width="70" height="90" as="geometry"/>
                </mxCell>
                <mxCell id="247" style="edgeStyle=none;html=1;exitX=0.5;exitY=0;exitDx=0;exitDy=0;entryX=0.25;entryY=1;entryDx=0;entryDy=0;" parent="1" source="243" target="242" edge="1">
                    <mxGeometry relative="1" as="geometry">
                        <Array as="points">
                            <mxPoint x="1140" y="555"/>
                            <mxPoint x="1140" y="573"/>
                        </Array>
                    </mxGeometry>
                </mxCell>
                <mxCell id="243" value="ALU MUX 1" style="shape=trapezoid;perimeter=trapezoidPerimeter;whiteSpace=wrap;html=1;fixedSize=1;direction=south;" parent="1" vertex="1">
                    <mxGeometry x="1060" y="509.5" width="60" height="90" as="geometry"/>
                </mxCell>
                <mxCell id="257" value="Arbiter" style="ellipse;whiteSpace=wrap;html=1;aspect=fixed;" vertex="1" parent="1">
                    <mxGeometry x="1160" y="1200" width="80" height="80" as="geometry"/>
                </mxCell>
                <mxCell id="259" value="i_mem_*" style="endArrow=classic;startArrow=classic;html=1;entryX=0;entryY=0.5;entryDx=0;entryDy=0;exitX=0.5;exitY=1;exitDx=0;exitDy=0;" edge="1" parent="1" source="2" target="257">
                    <mxGeometry width="50" height="50" relative="1" as="geometry">
                        <mxPoint x="820" y="1210" as="sourcePoint"/>
                        <mxPoint x="870" y="1160" as="targetPoint"/>
                        <Array as="points">
                            <mxPoint x="490" y="1240"/>
                        </Array>
                    </mxGeometry>
                </mxCell>
                <mxCell id="261" value="d_mem_*" style="endArrow=classic;startArrow=classic;html=1;exitX=1;exitY=0.5;exitDx=0;exitDy=0;entryX=0.5;entryY=1;entryDx=0;entryDy=0;" edge="1" parent="1" source="257" target="154">
                    <mxGeometry width="50" height="50" relative="1" as="geometry">
                        <mxPoint x="1240" y="1210" as="sourcePoint"/>
                        <mxPoint x="1290" y="1160" as="targetPoint"/>
                        <Array as="points">
                            <mxPoint x="1688" y="1240"/>
                        </Array>
                    </mxGeometry>
                </mxCell>
                <mxCell id="262" value="Physical Memory" style="rounded=0;whiteSpace=wrap;html=1;" vertex="1" parent="1">
                    <mxGeometry x="1140" y="1350" width="120" height="60" as="geometry"/>
                </mxCell>
                <mxCell id="263" value="" style="endArrow=classic;startArrow=classic;html=1;entryX=0.5;entryY=1;entryDx=0;entryDy=0;exitX=0.5;exitY=0;exitDx=0;exitDy=0;" edge="1" parent="1" source="262" target="257">
                    <mxGeometry width="50" height="50" relative="1" as="geometry">
                        <mxPoint x="1080" y="1210" as="sourcePoint"/>
                        <mxPoint x="1130" y="1160" as="targetPoint"/>
                    </mxGeometry>
                </mxCell>
            </root>
        </mxGraphModel>
    </diagram>
</mxfile>